<?xml version="1.0" encoding="utf-8"?>
<!-- Generator: Adobe Illustrator 16.0.0, SVG Export Plug-In . SVG Version: 6.00 Build 0)  -->
<!DOCTYPE svg PUBLIC "-//W3C//DTD SVG 1.1//EN" "http://www.w3.org/Graphics/SVG/1.1/DTD/svg11.dtd" [
	<!ENTITY ns_extend "http://ns.adobe.com/Extensibility/1.0/">
	<!ENTITY ns_ai "http://ns.adobe.com/AdobeIllustrator/10.0/">
	<!ENTITY ns_graphs "http://ns.adobe.com/Graphs/1.0/">
	<!ENTITY ns_vars "http://ns.adobe.com/Variables/1.0/">
	<!ENTITY ns_imrep "http://ns.adobe.com/ImageReplacement/1.0/">
	<!ENTITY ns_sfw "http://ns.adobe.com/SaveForWeb/1.0/">
	<!ENTITY ns_custom "http://ns.adobe.com/GenericCustomNamespace/1.0/">
	<!ENTITY ns_adobe_xpath "http://ns.adobe.com/XPath/1.0/">
]>
<svg version="1.1" id="Layer_1" xmlns:x="&ns_extend;" xmlns:i="&ns_ai;" xmlns:graph="&ns_graphs;"
	 xmlns="http://www.w3.org/2000/svg" xmlns:xlink="http://www.w3.org/1999/xlink" x="0px" y="0px" width="71px" height="75px"
	 viewBox="0 0 71 75" enable-background="new 0 0 71 75" xml:space="preserve">
<metadata>
	<sfw  xmlns="&ns_sfw;">
		<slices></slices>
		<sliceSourceBounds  height="72.693" width="64.184" bottomLeftOrigin="true" x="4" y="-73.622"></sliceSourceBounds>
	</sfw>
</metadata>
<path fill="none" stroke="#FFFFFF" stroke-width="3" stroke-miterlimit="10" d="M64.969,31.336
	c0,15.965-12.942,28.907-28.908,28.907c-15.964,0-28.906-12.941-28.906-28.907S20.096,2.429,36.061,2.429
	C52.026,2.429,64.969,15.371,64.969,31.336"/>
<path fill="#FFFFFF" d="M36.061,60.37c-16.008,0-29.033-13.023-29.033-29.034c0-16.009,13.025-29.035,29.033-29.035
	c16.01,0,29.036,13.025,29.036,29.035C65.097,47.347,52.07,60.37,36.061,60.37z M36.061,2.557c-15.869,0-28.779,12.91-28.779,28.78
	s12.911,28.78,28.779,28.78c15.87,0,28.781-12.91,28.781-28.78S51.931,2.557,36.061,2.557z"/>
<path fill="#FFFFFF" d="M25.164,42.391L22.25,15c0,0-2.914,1.865-2.914,2.797C19.336,18.73,25.164,42.391,25.164,42.391"/>
<path fill="#FFFFFF" d="M27.262,45.653l-2.098-32.517c0,0,9.207,5.128,18.998,3.146c-5.245,11.422-6.988,36.715-5.712,36.597
	c2.684-0.247,3.03-0.815,3.03-0.815S40.359,29.229,52.786,9.792c0,0-14.219,6.984-30.303,0L27.262,45.653z"/>
<path fill="#FFFFFF" d="M49.988,19.08c0,0,2.798,1.981,2.682,4.01c-0.089,1.583-6.179,5.476-8.975,28.509l-1.281,0.233
	C43.456,31.962,49.988,19.08,49.988,19.08"/>
<g>
	<path fill="#FFFFFF" d="M4.272,72.241c0.483,0.282,1.188,0.52,1.93,0.52c1.101,0,1.744-0.556,1.744-1.358
		c0-0.743-0.445-1.168-1.571-1.581c-1.361-0.46-2.202-1.134-2.202-2.255c0-1.239,1.076-2.16,2.697-2.16
		c0.854,0,1.472,0.189,1.843,0.39l-0.296,0.839c-0.272-0.142-0.829-0.378-1.584-0.378c-1.138,0-1.571,0.648-1.571,1.191
		c0,0.743,0.507,1.11,1.657,1.535c1.411,0.52,2.128,1.169,2.128,2.337c0,1.228-0.952,2.289-2.919,2.289
		c-0.804,0-1.683-0.224-2.128-0.507L4.272,72.241z"/>
	<path fill="#FFFFFF" d="M14.38,70.989l-0.866,2.502H12.4l2.833-7.954h1.299l2.846,7.954h-1.151l-0.891-2.502H14.38z M17.113,70.187
		l-0.816-2.289c-0.185-0.52-0.309-0.992-0.433-1.452h-0.025c-0.124,0.472-0.26,0.956-0.421,1.439l-0.816,2.302H17.113z"/>
	<path fill="#FFFFFF" d="M23.226,65.537h1.076v7.093h3.563v0.861h-4.639V65.537z"/>
	<path fill="#FFFFFF" d="M37.515,73.232c-0.396,0.189-1.188,0.377-2.202,0.377c-2.35,0-4.119-1.415-4.119-4.024
		c0-2.49,1.77-4.179,4.354-4.179c1.039,0,1.694,0.214,1.979,0.354l-0.26,0.838c-0.408-0.188-0.99-0.331-1.683-0.331
		c-1.955,0-3.253,1.192-3.253,3.281c0,1.949,1.175,3.199,3.204,3.199c0.656,0,1.324-0.129,1.757-0.329L37.515,73.232z"/>
	<path fill="#FFFFFF" d="M45.804,69.762h-3.24v2.868h3.611v0.861h-4.688v-7.954h4.503v0.861h-3.426v2.515h3.24V69.762z"/>
	<path fill="#FFFFFF" d="M50.195,65.643c0.656-0.095,1.437-0.165,2.29-0.165c1.545,0,2.646,0.343,3.378,0.992
		c0.742,0.649,1.175,1.569,1.175,2.855c0,1.299-0.422,2.36-1.2,3.094c-0.78,0.743-2.066,1.144-3.687,1.144
		c-0.768,0-1.412-0.035-1.956-0.094V65.643z M51.273,72.679c0.271,0.046,0.668,0.059,1.088,0.059c2.299,0,3.551-1.229,3.551-3.376
		c0.011-1.877-1.102-3.069-3.378-3.069c-0.557,0-0.976,0.047-1.261,0.106V72.679z"/>
	<path fill="#FFFFFF" d="M68.184,69.432c0,2.738-1.743,4.19-3.873,4.19c-2.199,0-3.747-1.629-3.747-4.037
		c0-2.525,1.646-4.179,3.873-4.179C66.712,65.406,68.184,67.071,68.184,69.432z M61.715,69.562c0,1.7,0.965,3.223,2.659,3.223
		c1.707,0,2.673-1.499,2.673-3.306c0-1.581-0.867-3.233-2.659-3.233C62.605,66.245,61.715,67.815,61.715,69.562z"/>
</g>
</svg>
