<?xml version="1.0" encoding="utf-8"?>
<!-- Generator: Adobe Illustrator 16.0.0, SVG Export Plug-In . SVG Version: 6.00 Build 0)  -->
<!DOCTYPE svg PUBLIC "-//W3C//DTD SVG 1.1//EN" "http://www.w3.org/Graphics/SVG/1.1/DTD/svg11.dtd" [
	<!ENTITY ns_flows "http://ns.adobe.com/Flows/1.0/">
	<!ENTITY ns_extend "http://ns.adobe.com/Extensibility/1.0/">
	<!ENTITY ns_ai "http://ns.adobe.com/AdobeIllustrator/10.0/">
	<!ENTITY ns_graphs "http://ns.adobe.com/Graphs/1.0/">
	<!ENTITY ns_vars "http://ns.adobe.com/Variables/1.0/">
	<!ENTITY ns_imrep "http://ns.adobe.com/ImageReplacement/1.0/">
	<!ENTITY ns_sfw "http://ns.adobe.com/SaveForWeb/1.0/">
	<!ENTITY ns_custom "http://ns.adobe.com/GenericCustomNamespace/1.0/">
	<!ENTITY ns_adobe_xpath "http://ns.adobe.com/XPath/1.0/">
]>
<svg version="1.1" id="Layer_1" xmlns:x="&ns_extend;" xmlns:i="&ns_ai;" xmlns:graph="&ns_graphs;"
	 xmlns="http://www.w3.org/2000/svg" xmlns:xlink="http://www.w3.org/1999/xlink" xmlns:a="http://ns.adobe.com/AdobeSVGViewerExtensions/3.0/"
	 x="0px" y="0px" width="300px" height="150.667px" viewBox="0 0 300 150.667" enable-background="new 0 0 300 150.667"
	 xml:space="preserve">
<metadata>
	<sfw  xmlns="&ns_sfw;">
		<slices></slices>
		<sliceSourceBounds  height="116.559" width="308.904" bottomLeftOrigin="true" x="-114.737" y="6.068"></sliceSourceBounds>
	</sfw>
</metadata>
<g opacity="0.25">
	<g>
		<defs>
			<rect id="SVGID_1_" x="0.5" y="-9" width="308.469" height="115.971"/>
		</defs>
		<clipPath id="SVGID_2_">
			<use xlink:href="#SVGID_1_"  overflow="visible"/>
		</clipPath>
		<g opacity="0.6" clip-path="url(#SVGID_2_)">
			<g>
				<defs>
					<rect id="SVGID_3_" x="0.5" y="74.606" width="308.469" height="32.365"/>
				</defs>
				<clipPath id="SVGID_4_">
					<use xlink:href="#SVGID_3_"  overflow="visible"/>
				</clipPath>
				<path clip-path="url(#SVGID_4_)" fill="#A6A8AB" d="M0.667,77.809c0,0,17.11,22.836,63.904,25.519
					c47.477,2.719,73.083-12.373,137.075-24.789c73.116-14.188,107.186,16.717,107.186,16.717s-23.063-18.644-79.451-16.994
					c-38.674,1.134-90.542,23.061-131.915,27.299C83.304,107.009,25.912,112.512,0.667,77.809"/>
				<path clip-path="url(#SVGID_4_)" fill="#A6A8AB" d="M75.641,107.265c-24.709,0-57.845-5.06-75.378-29.162l0.804-0.594
					c0.17,0.227,17.546,22.683,63.533,25.319c3.71,0.212,7.403,0.32,10.977,0.32c25.122,0,44.911-5.238,69.965-11.87
					c15.678-4.15,33.446-8.854,56.008-13.231c12.772-2.478,25.22-3.735,36.995-3.735c47.4,0,70.396,20.367,70.622,20.573
					l-0.65,0.759c-7.286-5.875-31.743-16.986-72.149-16.986c-2.288,0-4.634,0.035-6.973,0.104
					c-20.711,0.607-45.737,7.334-69.94,13.84c-21.014,5.649-42.744,11.49-61.938,13.456
					C93.986,106.418,85.72,107.265,75.641,107.265z M8.222,85.562c18.194,16.882,45.996,20.703,67.418,20.703
					c10.028,0,18.259-0.843,21.773-1.202c19.114-1.958,40.804-7.789,61.78-13.428c24.259-6.521,49.343-13.263,70.171-13.874
					c2.349-0.068,4.705-0.104,7.002-0.104c29.867,0,49.672,5.868,60.979,10.751c-11.102-5.839-30.577-13.096-58.802-13.096
					c-11.712,0-24.095,1.25-36.804,3.717c-22.529,4.371-40.281,9.069-55.943,13.216c-25.125,6.65-44.969,11.903-70.221,11.903
					c-3.593,0-7.305-0.108-11.035-0.322c-24.268-1.392-40.433-8.289-49.719-13.83C12.255,88.464,10.065,86.959,8.222,85.562z"/>
			</g>
		</g>
		<g opacity="0.58" clip-path="url(#SVGID_2_)">
			<g>
				<defs>
					<rect id="SVGID_5_" x="0.5" y="65.713" width="308.469" height="32.365"/>
				</defs>
				<clipPath id="SVGID_6_">
					<use xlink:href="#SVGID_5_"  overflow="visible"/>
				</clipPath>
				<path clip-path="url(#SVGID_6_)" fill="#A6A8AB" d="M0.667,68.917c0,0,17.11,22.837,63.904,25.518
					c47.477,2.72,73.083-12.371,137.075-24.788c73.116-14.187,107.186,16.716,107.186,16.716s-23.063-18.643-79.451-16.993
					C190.706,70.5,138.837,92.429,97.465,96.666C83.304,98.117,25.912,103.62,0.667,68.917"/>
				<path clip-path="url(#SVGID_6_)" fill="#A6A8AB" d="M75.635,98.372c-24.708,0-57.84-5.06-75.373-29.161l0.804-0.594
					c0.17,0.226,17.546,22.684,63.533,25.318c3.711,0.213,7.406,0.32,10.981,0.32c25.12,0,44.911-5.238,69.967-11.87
					c15.676-4.149,33.444-8.853,56.002-13.23c12.772-2.479,25.22-3.735,36.995-3.735c47.4,0,70.396,20.365,70.622,20.571
					l-0.65,0.759c-7.286-5.875-31.742-16.985-72.149-16.985c-2.287,0-4.634,0.035-6.973,0.104
					c-20.711,0.606-45.736,7.333-69.938,13.839c-21.015,5.648-42.746,11.49-61.94,13.455C93.987,97.525,85.723,98.372,75.635,98.372
					z M8.223,76.67c18.193,16.882,45.992,20.701,67.412,20.701c10.037,0,18.265-0.844,21.779-1.203
					c19.114-1.958,40.805-7.788,61.782-13.427c24.258-6.521,49.342-13.263,70.169-13.873c2.349-0.069,4.705-0.104,7.002-0.104
					c29.868,0,49.671,5.867,60.979,10.75c-11.102-5.839-30.576-13.095-58.801-13.095c-11.712,0-24.095,1.25-36.804,3.716
					c-22.526,4.371-40.276,9.07-55.938,13.214c-25.126,6.651-44.972,11.904-70.223,11.904c-3.594,0-7.308-0.108-11.039-0.322
					c-24.268-1.39-40.433-8.288-49.719-13.829C12.256,79.573,10.066,78.068,8.223,76.67z"/>
			</g>
		</g>
		<g opacity="0.55" clip-path="url(#SVGID_2_)">
			<g>
				<defs>
					<rect id="SVGID_7_" x="0.5" y="57.292" width="308.469" height="32.365"/>
				</defs>
				<clipPath id="SVGID_8_">
					<use xlink:href="#SVGID_7_"  overflow="visible"/>
				</clipPath>
				<path clip-path="url(#SVGID_8_)" fill="#A6A8AB" d="M0.667,60.494c0,0,17.11,22.837,63.904,25.52
					c47.477,2.718,73.083-12.373,137.075-24.789c73.116-14.188,107.186,16.717,107.186,16.717s-23.063-18.644-79.451-16.993
					c-38.674,1.132-90.542,23.06-131.915,27.296C83.304,89.695,25.912,95.198,0.667,60.494"/>
				<path clip-path="url(#SVGID_8_)" fill="#A6A8AB" d="M75.636,89.95c-24.708,0-57.84-5.06-75.374-29.162l0.804-0.594
					c0.17,0.226,17.546,22.684,63.533,25.32c3.709,0.212,7.401,0.32,10.975,0.32c25.122,0,44.913-5.239,69.968-11.871
					c15.677-4.149,33.447-8.853,56.007-13.23c12.772-2.479,25.22-3.735,36.995-3.735c47.4,0,70.396,20.367,70.622,20.573
					l-0.65,0.759c-7.285-5.875-31.739-16.985-72.146-16.985c-2.289,0-4.636,0.035-6.977,0.103
					c-20.711,0.606-45.737,7.333-69.939,13.839c-21.015,5.649-42.745,11.49-61.939,13.455C93.987,89.103,85.723,89.95,75.636,89.95z
					 M8.222,68.247C26.416,85.129,54.215,88.95,75.636,88.95c10.037,0,18.265-0.844,21.778-1.203
					c19.114-1.957,40.805-7.788,61.781-13.426c24.259-6.521,49.342-13.263,70.17-13.873c2.35-0.068,4.707-0.104,7.006-0.104
					c29.864,0,49.665,5.866,60.973,10.748c-11.103-5.838-30.577-13.094-58.799-13.094c-11.712,0-24.095,1.25-36.804,3.717
					c-22.528,4.371-40.28,9.07-55.942,13.215c-25.126,6.65-44.973,11.904-70.225,11.904c-3.592,0-7.304-0.108-11.032-0.322
					c-24.268-1.392-40.433-8.289-49.719-13.831C12.255,71.15,10.065,69.645,8.222,68.247z"/>
			</g>
		</g>
		<g opacity="0.5" clip-path="url(#SVGID_2_)">
			<g>
				<defs>
					<rect id="SVGID_9_" x="0.5" y="48.618" width="308.469" height="32.365"/>
				</defs>
				<clipPath id="SVGID_10_">
					<use xlink:href="#SVGID_9_"  overflow="visible"/>
				</clipPath>
				<path clip-path="url(#SVGID_10_)" fill="#A6A8AB" d="M0.667,51.819c0,0,17.11,22.838,63.904,25.519
					c47.477,2.719,73.083-12.372,137.075-24.789c73.116-14.188,107.186,16.716,107.186,16.716s-23.063-18.642-79.451-16.993
					c-38.674,1.132-90.542,23.06-131.915,27.296C83.304,81.021,25.912,86.525,0.667,51.819"/>
				<path clip-path="url(#SVGID_10_)" fill="#A6A8AB" d="M75.634,81.276c-24.707,0-57.839-5.06-75.372-29.163l0.804-0.594
					c0.17,0.227,17.546,22.685,63.533,25.32c3.71,0.212,7.404,0.32,10.978,0.32c25.122,0,44.912-5.239,69.967-11.871
					c15.676-4.149,33.445-8.853,56.005-13.23c12.772-2.479,25.22-3.735,36.996-3.735c47.4,0,70.395,20.366,70.621,20.572
					l-0.65,0.759c-7.286-5.875-31.742-16.985-72.148-16.985c-2.288,0-4.635,0.035-6.974,0.104
					c-20.711,0.606-45.737,7.333-69.939,13.838c-21.015,5.649-42.745,11.49-61.939,13.455
					C93.986,80.429,85.722,81.276,75.634,81.276z M8.223,59.573c18.193,16.883,45.992,20.703,67.412,20.703
					c10.036,0,18.266-0.844,21.78-1.203c19.114-1.957,40.805-7.788,61.782-13.426c24.258-6.521,49.341-13.263,70.169-13.873
					c2.349-0.068,4.705-0.104,7.003-0.104c29.873,0,49.678,5.87,60.985,10.752c-11.101-5.839-30.578-13.099-58.808-13.099
					c-11.712,0-24.096,1.25-36.805,3.717c-22.528,4.371-40.279,9.07-55.941,13.215c-25.125,6.65-44.97,11.904-70.223,11.904
					c-3.593,0-7.306-0.108-11.036-0.322c-24.268-1.39-40.433-8.288-49.719-13.83C12.255,62.476,10.065,60.971,8.223,59.573z"/>
			</g>
		</g>
		<g opacity="0.45" clip-path="url(#SVGID_2_)">
			<g>
				<defs>
					<rect id="SVGID_11_" x="0.5" y="39.691" width="308.469" height="32.366"/>
				</defs>
				<clipPath id="SVGID_12_">
					<use xlink:href="#SVGID_11_"  overflow="visible"/>
				</clipPath>
				<path clip-path="url(#SVGID_12_)" fill="#A6A8AB" d="M0.667,42.894c0,0,17.11,22.838,63.904,25.518
					c47.477,2.721,73.083-12.371,137.075-24.788c73.116-14.187,107.186,16.718,107.186,16.718s-23.063-18.643-79.451-16.993
					c-38.674,1.132-90.542,23.06-131.915,27.295C83.304,72.095,25.912,77.598,0.667,42.894"/>
				<path clip-path="url(#SVGID_12_)" fill="#A6A8AB" d="M75.636,72.35c-24.708,0-57.84-5.06-75.374-29.162l0.804-0.594
					c0.17,0.226,17.546,22.685,63.533,25.318c3.712,0.212,7.408,0.32,10.984,0.32c25.12,0,44.909-5.238,69.963-11.87
					c15.676-4.149,33.444-8.853,56.003-13.23c12.771-2.478,25.218-3.734,36.993-3.734c47.399,0,70.397,20.367,70.624,20.573
					l-0.65,0.759c-7.285-5.875-31.739-16.985-72.146-16.985c-2.289,0-4.636,0.035-6.977,0.103
					c-20.71,0.606-45.735,7.333-69.937,13.838c-21.016,5.649-42.747,11.49-61.942,13.455C93.987,71.503,85.723,72.35,75.636,72.35z
					 M8.223,50.647C26.416,67.53,54.215,71.35,75.636,71.35c10.037,0,18.265-0.843,21.778-1.204
					c19.115-1.957,40.806-7.787,61.784-13.426c24.257-6.52,49.34-13.262,70.167-13.872c2.351-0.068,4.707-0.104,7.006-0.104
					c29.864,0,49.664,5.865,60.971,10.747c-11.103-5.839-30.578-13.094-58.799-13.094c-11.712,0-24.094,1.25-36.802,3.716
					c-22.527,4.371-40.277,9.07-55.938,13.215c-25.125,6.65-44.969,11.903-70.219,11.903c-3.595,0-7.31-0.108-11.042-0.322
					c-24.268-1.39-40.433-8.287-49.719-13.829C12.256,53.551,10.066,52.045,8.223,50.647z"/>
			</g>
		</g>
		<g opacity="0.4" clip-path="url(#SVGID_2_)">
			<g>
				<defs>
					<rect id="SVGID_13_" x="0.5" y="30.514" width="308.469" height="32.365"/>
				</defs>
				<clipPath id="SVGID_14_">
					<use xlink:href="#SVGID_13_"  overflow="visible"/>
				</clipPath>
				<path clip-path="url(#SVGID_14_)" fill="#A6A8AB" d="M0.667,33.717c0,0,17.11,22.837,63.904,25.518
					c47.477,2.721,73.083-12.371,137.075-24.789c73.116-14.187,107.186,16.718,107.186,16.718s-23.063-18.642-79.451-16.993
					c-38.674,1.13-90.542,23.06-131.915,27.296C83.304,62.918,25.912,68.421,0.667,33.717"/>
				<path clip-path="url(#SVGID_14_)" fill="#A6A8AB" d="M75.635,63.173c-24.707,0-57.84-5.06-75.373-29.162l0.804-0.594
					c0.17,0.226,17.546,22.684,63.533,25.318c3.713,0.213,7.409,0.321,10.985,0.321c25.12,0,44.909-5.239,69.962-11.871
					c15.676-4.15,33.444-8.853,56.002-13.23c12.771-2.478,25.218-3.734,36.993-3.734c47.399,0,70.397,20.367,70.624,20.573
					l-0.65,0.759c-7.284-5.875-31.738-16.985-72.15-16.985c-2.288,0-4.633,0.034-6.972,0.103
					c-20.711,0.605-45.738,7.333-69.941,13.838c-21.014,5.648-42.744,11.49-61.937,13.455
					C93.987,62.326,85.723,63.173,75.635,63.173z M8.222,41.469c18.193,16.883,45.993,20.704,67.413,20.704
					c10.037,0,18.265-0.843,21.779-1.204c19.113-1.957,40.803-7.787,61.779-13.426c24.259-6.521,49.344-13.264,70.172-13.873
					c2.349-0.068,4.704-0.103,7.001-0.103c29.865,0,49.667,5.865,60.976,10.747c-11.104-5.839-30.578-13.094-58.799-13.094
					c-11.712,0-24.094,1.25-36.802,3.716c-22.527,4.372-40.277,9.07-55.938,13.216c-25.124,6.65-44.968,11.904-70.218,11.904
					c-3.595,0-7.311-0.109-11.043-0.323c-24.268-1.39-40.433-8.288-49.719-13.829C12.255,44.373,10.065,42.867,8.222,41.469z"/>
			</g>
		</g>
		<g opacity="0.29" clip-path="url(#SVGID_2_)">
			<g>
				<defs>
					<rect id="SVGID_15_" x="0.5" y="20.601" width="308.469" height="32.365"/>
				</defs>
				<clipPath id="SVGID_16_">
					<use xlink:href="#SVGID_15_"  overflow="visible"/>
				</clipPath>
				<path clip-path="url(#SVGID_16_)" fill="#A6A8AB" d="M0.667,23.803c0,0,17.11,22.836,63.904,25.519
					c47.477,2.719,73.083-12.372,137.075-24.788c73.116-14.188,107.186,16.716,107.186,16.716s-23.063-18.642-79.451-16.992
					c-38.674,1.132-90.542,23.059-131.915,27.297C83.304,53.003,25.912,58.507,0.667,23.803"/>
				<path clip-path="url(#SVGID_16_)" fill="#A6A8AB" d="M75.638,53.259c-24.708,0-57.843-5.059-75.375-29.162l0.804-0.594
					c0.17,0.226,17.546,22.683,63.533,25.319c3.711,0.212,7.405,0.32,10.979,0.32c25.12,0,44.91-5.238,69.966-11.871
					c15.677-4.149,33.446-8.853,56.005-13.229c12.773-2.479,25.221-3.735,36.997-3.735c47.399,0,70.394,20.366,70.62,20.572
					l-0.65,0.759c-7.285-5.875-31.74-16.985-72.146-16.985c-2.289,0-4.636,0.035-6.976,0.104
					c-20.712,0.606-45.739,7.333-69.942,13.839c-21.014,5.648-42.743,11.489-61.936,13.455
					C93.986,52.413,85.719,53.259,75.638,53.259z M8.221,31.554c18.193,16.883,45.996,20.705,67.417,20.705
					c10.03,0,18.261-0.843,21.776-1.203c19.113-1.958,40.802-7.788,61.778-13.426c24.259-6.521,49.344-13.264,70.173-13.874
					c2.35-0.068,4.706-0.104,7.005-0.104c29.87,0,49.674,5.868,60.98,10.751c-11.101-5.839-30.577-13.097-58.804-13.097
					c-11.713,0-24.096,1.25-36.806,3.717c-22.527,4.371-40.279,9.069-55.94,13.215c-25.126,6.651-44.973,11.904-70.222,11.904
					c-3.593,0-7.307-0.108-11.037-0.322c-24.268-1.391-40.433-8.289-49.719-13.83C12.255,34.458,10.064,32.953,8.221,31.554z"/>
			</g>
		</g>
		<g opacity="0.2" clip-path="url(#SVGID_2_)">
			<g>
				<defs>
					<rect id="SVGID_17_" x="0.5" y="10.778" width="308.469" height="32.363"/>
				</defs>
				<clipPath id="SVGID_18_">
					<use xlink:href="#SVGID_17_"  overflow="visible"/>
				</clipPath>
				<path clip-path="url(#SVGID_18_)" fill="#A6A8AB" d="M0.667,13.98c0,0,17.11,22.836,63.904,25.517
					c47.477,2.721,73.083-12.371,137.075-24.787c73.116-14.188,107.186,16.716,107.186,16.716s-23.063-18.644-79.451-16.993
					c-38.674,1.13-90.542,23.059-131.915,27.297C83.304,43.181,25.912,48.684,0.667,13.98"/>
				<path clip-path="url(#SVGID_18_)" fill="#A6A8AB" d="M75.639,43.436c-24.709,0-57.843-5.06-75.376-29.162l0.804-0.594
					c0.17,0.226,17.546,22.683,63.533,25.318c3.712,0.212,7.408,0.32,10.984,0.32c25.12,0,44.909-5.238,69.963-11.87
					c15.676-4.149,33.443-8.853,56.003-13.229c12.772-2.479,25.22-3.735,36.996-3.735c47.4,0,70.395,20.366,70.621,20.572
					l-0.65,0.759c-7.284-5.875-31.737-16.985-72.144-16.985c-2.29,0-4.638,0.035-6.979,0.104
					c-20.713,0.605-45.741,7.333-69.946,13.84c-21.012,5.648-42.74,11.489-61.932,13.455C93.986,42.59,85.72,43.436,75.639,43.436z
					 M8.221,21.731c18.193,16.883,45.996,20.705,67.417,20.705c10.03,0,18.261-0.843,21.775-1.203
					c19.112-1.958,40.8-7.788,61.774-13.426c24.261-6.521,49.347-13.265,70.177-13.874c2.351-0.069,4.709-0.104,7.008-0.104
					c29.864,0,49.663,5.865,60.971,10.748c-11.103-5.839-30.576-13.094-58.798-13.094c-11.712,0-24.096,1.25-36.805,3.717
					c-22.527,4.371-40.277,9.069-55.938,13.215c-25.125,6.65-44.969,11.903-70.219,11.903c-3.595,0-7.31-0.108-11.042-0.322
					c-24.268-1.39-40.433-8.288-49.719-13.829C12.255,24.635,10.064,23.13,8.221,21.731z"/>
			</g>
		</g>
		<g opacity="0.15" clip-path="url(#SVGID_2_)">
			<g>
				<defs>
					<rect id="SVGID_19_" x="0.5" y="0.914" width="308.469" height="32.365"/>
				</defs>
				<clipPath id="SVGID_20_">
					<use xlink:href="#SVGID_19_"  overflow="visible"/>
				</clipPath>
				<path clip-path="url(#SVGID_20_)" fill="#A6A8AB" d="M0.667,4.117c0,0,17.11,22.837,63.904,25.518
					c47.477,2.72,73.083-12.372,137.075-24.789c73.116-14.188,107.186,16.717,107.186,16.717S285.767,2.921,229.379,4.57
					c-38.674,1.132-90.542,23.062-131.915,27.297C83.304,33.317,25.912,38.822,0.667,4.117"/>
				<path clip-path="url(#SVGID_20_)" fill="#A6A8AB" d="M75.635,33.573c-24.708,0-57.841-5.06-75.373-29.162l0.804-0.594
					c0.17,0.227,17.546,22.685,63.533,25.319c3.712,0.212,7.407,0.32,10.982,0.32c25.119,0,44.909-5.238,69.964-11.871
					c15.676-4.149,33.445-8.853,56.003-13.23c12.772-2.479,25.22-3.735,36.995-3.735c47.4,0,70.396,20.367,70.622,20.573
					l-0.65,0.759c-7.284-5.875-31.738-16.985-72.15-16.985c-2.288,0-4.633,0.034-6.972,0.103
					c-20.71,0.606-45.735,7.333-69.938,13.839c-21.015,5.649-42.746,11.491-61.941,13.456
					C93.985,32.726,85.717,33.573,75.635,33.573z M8.222,11.87c18.193,16.882,45.993,20.703,67.413,20.703
					c10.031,0,18.263-0.843,21.779-1.203c19.114-1.957,40.806-7.788,61.783-13.427c24.258-6.521,49.341-13.263,70.168-13.873
					c2.349-0.068,4.704-0.103,7.001-0.103c29.868,0,49.67,5.866,60.978,10.748C286.241,8.876,266.766,1.62,238.544,1.62
					c-11.712,0-24.095,1.25-36.804,3.717c-22.527,4.371-40.277,9.07-55.939,13.215c-25.125,6.651-44.971,11.904-70.22,11.904
					c-3.595,0-7.309-0.108-11.04-0.322c-24.268-1.39-40.433-8.288-49.719-13.829C12.255,14.773,10.065,13.268,8.222,11.87z"/>
			</g>
		</g>
		<g opacity="0.1" clip-path="url(#SVGID_2_)">
			<g>
				<defs>
					<rect id="SVGID_21_" x="0.5" y="-9" width="308.469" height="32.365"/>
				</defs>
				<clipPath id="SVGID_22_">
					<use xlink:href="#SVGID_21_"  overflow="visible"/>
				</clipPath>
				<path clip-path="url(#SVGID_22_)" fill="#A6A8AB" d="M0.667-5.798c0,0,17.11,22.836,63.904,25.517
					c47.477,2.722,73.083-12.371,137.075-24.787c73.116-14.188,107.186,16.717,107.186,16.717S285.767-6.994,229.379-5.344
					c-38.674,1.132-90.542,23.061-131.915,27.297C83.304,23.403,25.912,28.906,0.667-5.798"/>
				<path clip-path="url(#SVGID_22_)" fill="#A6A8AB" d="M75.639,23.658c-24.709,0-57.843-5.06-75.376-29.162l0.804-0.594
					c0.17,0.226,17.546,22.683,63.533,25.318c3.713,0.213,7.41,0.321,10.987,0.321c25.116,0,44.906-5.238,69.96-11.87
					c15.676-4.149,33.445-8.853,56.002-13.229c12.772-2.479,25.22-3.735,36.995-3.735c47.4,0,70.396,20.367,70.622,20.573
					l-0.65,0.759c-7.286-5.875-31.742-16.986-72.149-16.986c-2.287,0-4.634,0.035-6.973,0.104
					c-20.711,0.606-45.737,7.333-69.94,13.839c-21.014,5.648-42.744,11.49-61.938,13.456C93.986,22.812,85.72,23.658,75.639,23.658z
					 M8.221,1.954c18.193,16.883,45.996,20.705,67.417,20.705c10.03,0,18.261-0.843,21.775-1.203
					c19.114-1.957,40.804-7.788,61.781-13.426c24.258-6.521,49.342-13.264,70.17-13.874c2.349-0.068,4.705-0.104,7.002-0.104
					c29.871,0,49.676,5.869,60.983,10.752c-11.102-5.84-30.578-13.098-58.806-13.098c-11.712,0-24.095,1.25-36.804,3.717
					c-22.526,4.371-40.276,9.069-55.938,13.215c-25.125,6.65-44.97,11.903-70.216,11.903c-3.596,0-7.312-0.108-11.045-0.323
					c-24.268-1.39-40.433-8.288-49.719-13.829C12.255,4.857,10.064,3.352,8.221,1.954z"/>
			</g>
		</g>
	</g>
</g>
<g>
	<g>
		<circle fill="#FFFFFF" cx="156.51" cy="36.047" r="33.736"/>
		<path fill="#6D6E70" d="M156.509,70.033c-18.74,0-33.985-15.246-33.985-33.985S137.77,2.062,156.509,2.062
			c18.74,0,33.986,15.246,33.986,33.985S175.25,70.033,156.509,70.033z M156.509,2.562c-18.464,0-33.485,15.021-33.485,33.485
			s15.021,33.485,33.485,33.485c18.465,0,33.486-15.021,33.486-33.485S174.974,2.562,156.509,2.562z"/>
	</g>
	<path fill="#00A19B" d="M143.792,48.948l-3.401-31.964c0,0-3.4,2.176-3.4,3.264C136.991,21.337,143.792,48.948,143.792,48.948"/>
	<path fill="#204380" d="M146.24,52.757l-2.448-37.95c0,0,10.745,5.985,22.17,3.672c-6.119,13.331-8.154,42.847-6.665,42.71
		c3.132-0.289,3.537-0.952,3.537-0.952s-1.311-26.649,13.194-49.333c0,0-16.595,8.151-35.364,0L146.24,52.757z"/>
	<path fill="#00A19B" d="M172.763,21.745c0,0,3.265,2.312,3.13,4.679c-0.107,1.847-7.212,6.391-10.476,33.27l-1.495,0.272
		C165.138,36.778,172.763,21.745,172.763,21.745"/>
</g>
<g>
	<path fill="#204380" d="M119.41,83.783c0.563,0.331,1.386,0.606,2.252,0.606c1.285,0,2.035-0.647,2.035-1.584
		c0-0.868-0.52-1.364-1.833-1.847c-1.588-0.537-2.57-1.323-2.57-2.632c0-1.446,1.256-2.521,3.147-2.521
		c0.996,0,1.718,0.221,2.151,0.455l-0.347,0.978c-0.317-0.165-0.967-0.44-1.848-0.44c-1.328,0-1.833,0.758-1.833,1.392
		c0,0.868,0.592,1.295,1.934,1.791c1.646,0.606,2.483,1.364,2.483,2.729c0,1.433-1.111,2.673-3.407,2.673
		c-0.938,0-1.963-0.262-2.482-0.593L119.41,83.783z"/>
	<path fill="#204380" d="M131.206,82.323l-1.01,2.921h-1.299l3.306-9.287h1.516l3.32,9.287h-1.342l-1.039-2.921H131.206z
		 M134.396,81.385l-0.953-2.673c-0.216-0.606-0.361-1.157-0.505-1.695h-0.029c-0.144,0.552-0.303,1.117-0.491,1.682l-0.953,2.687
		H134.396z"/>
	<path fill="#204380" d="M141.53,75.957h1.256v8.281h4.157v1.006h-5.413V75.957z"/>
	<path fill="#204380" d="M158.204,84.941c-0.462,0.22-1.386,0.44-2.569,0.44c-2.742,0-4.807-1.653-4.807-4.698
		c0-2.907,2.064-4.878,5.081-4.878c1.213,0,1.978,0.248,2.31,0.414l-0.303,0.978c-0.477-0.221-1.155-0.386-1.963-0.386
		c-2.281,0-3.797,1.392-3.797,3.83c0,2.274,1.371,3.734,3.738,3.734c0.766,0,1.545-0.151,2.05-0.386L158.204,84.941z"/>
	<path fill="#204380" d="M167.877,80.889h-3.782v3.349h4.215v1.006h-5.471v-9.287h5.255v1.005h-3.999v2.936h3.782V80.889z"/>
	<path fill="#204380" d="M173.004,76.081c0.766-0.11,1.675-0.193,2.671-0.193c1.805,0,3.089,0.4,3.94,1.158
		c0.866,0.758,1.371,1.832,1.371,3.334c0,1.516-0.49,2.756-1.399,3.61c-0.91,0.868-2.411,1.337-4.302,1.337
		c-0.896,0-1.646-0.042-2.281-0.11V76.081z M174.26,84.292c0.318,0.056,0.78,0.069,1.271,0.069c2.685,0,4.143-1.433,4.143-3.94
		c0.015-2.191-1.284-3.582-3.94-3.582c-0.649,0-1.141,0.055-1.473,0.123V84.292z"/>
	<path fill="#204380" d="M193.995,80.503c0,3.197-2.035,4.892-4.518,4.892c-2.569,0-4.374-1.901-4.374-4.712
		c0-2.949,1.92-4.878,4.519-4.878C192.277,75.805,193.995,77.748,193.995,80.503z M186.446,80.656c0,1.983,1.126,3.761,3.104,3.761
		c1.992,0,3.118-1.749,3.118-3.857c0-1.847-1.011-3.775-3.104-3.775C187.485,76.784,186.446,78.616,186.446,80.656z"/>
</g>
<g>
	<path fill="#58595B" d="M120.5,95.538c-0.222,0.123-0.665,0.245-1.233,0.245c-1.316,0-2.307-0.919-2.307-2.611
		c0-1.616,0.991-2.712,2.438-2.712c0.582,0,0.949,0.138,1.108,0.229l-0.146,0.544c-0.229-0.122-0.554-0.214-0.942-0.214
		c-1.094,0-1.822,0.773-1.822,2.129c0,1.264,0.658,2.076,1.794,2.076c0.367,0,0.741-0.084,0.983-0.215L120.5,95.538z"/>
	<path fill="#58595B" d="M124.267,93.822c0,1.371-0.859,1.969-1.669,1.969c-0.908,0-1.607-0.735-1.607-1.907
		c0-1.241,0.734-1.969,1.663-1.969C123.615,91.915,124.267,92.689,124.267,93.822z M121.606,93.861c0,0.812,0.422,1.425,1.018,1.425
		c0.582,0,1.019-0.605,1.019-1.44c0-0.628-0.284-1.425-1.004-1.425C121.918,92.42,121.606,93.156,121.606,93.861z"/>
	<path fill="#58595B" d="M125.034,93.002c0-0.383-0.007-0.697-0.028-1.003h0.541l0.035,0.612h0.014
		c0.166-0.353,0.554-0.697,1.108-0.697c0.464,0,1.185,0.307,1.185,1.578v2.214h-0.61V93.57c0-0.598-0.201-1.096-0.776-1.096
		c-0.401,0-0.713,0.314-0.817,0.689c-0.027,0.084-0.042,0.199-0.042,0.313v2.229h-0.609V93.002z"/>
	<path fill="#58595B" d="M128.794,95.017c0.18,0.13,0.499,0.269,0.804,0.269c0.443,0,0.651-0.245,0.651-0.552
		c0-0.322-0.173-0.498-0.624-0.682c-0.603-0.237-0.887-0.605-0.887-1.05c0-0.598,0.437-1.088,1.157-1.088
		c0.339,0,0.638,0.107,0.825,0.23l-0.153,0.49c-0.131-0.092-0.374-0.215-0.686-0.215c-0.36,0-0.561,0.229-0.561,0.506
		c0,0.306,0.201,0.444,0.637,0.628c0.582,0.245,0.88,0.566,0.88,1.118c0,0.651-0.458,1.11-1.254,1.11
		c-0.367,0-0.707-0.1-0.942-0.252L128.794,95.017z"/>
	<path fill="#58595B" d="M132.403,90.934V92h0.873v0.513h-0.873v1.999c0,0.46,0.118,0.721,0.457,0.721
		c0.159,0,0.277-0.023,0.353-0.046l0.028,0.505c-0.118,0.054-0.305,0.092-0.54,0.092c-0.284,0-0.513-0.1-0.658-0.283
		c-0.173-0.199-0.236-0.528-0.236-0.965v-2.022h-0.52V92h0.52v-0.889L132.403,90.934z"/>
	<path fill="#58595B" d="M133.961,93.156c0-0.437-0.007-0.812-0.028-1.156h0.533l0.021,0.728h0.028
		c0.152-0.498,0.52-0.812,0.928-0.812c0.069,0,0.118,0.008,0.173,0.023v0.636c-0.062-0.016-0.125-0.023-0.208-0.023
		c-0.43,0-0.734,0.36-0.817,0.866c-0.014,0.092-0.028,0.199-0.028,0.313v1.977h-0.603V93.156z"/>
	<path fill="#58595B" d="M139.094,94.696c0,0.383,0.007,0.72,0.027,1.011h-0.54l-0.035-0.605h-0.014
		c-0.159,0.299-0.512,0.689-1.108,0.689c-0.526,0-1.157-0.321-1.157-1.624V92h0.61v2.053c0,0.704,0.194,1.18,0.748,1.18
		c0.409,0,0.693-0.314,0.804-0.613c0.035-0.1,0.055-0.222,0.055-0.345V92h0.61V94.696z"/>
	<path fill="#58595B" d="M142.493,95.569c-0.159,0.092-0.512,0.214-0.963,0.214c-1.011,0-1.669-0.758-1.669-1.892
		c0-1.142,0.707-1.969,1.801-1.969c0.36,0,0.679,0.1,0.845,0.191l-0.139,0.521c-0.146-0.092-0.374-0.177-0.707-0.177
		c-0.769,0-1.185,0.628-1.185,1.402c0,0.857,0.499,1.386,1.164,1.386c0.347,0,0.575-0.1,0.749-0.184L142.493,95.569z"/>
	<path fill="#58595B" d="M145.596,95.569c-0.159,0.092-0.512,0.214-0.963,0.214c-1.011,0-1.669-0.758-1.669-1.892
		c0-1.142,0.707-1.969,1.801-1.969c0.36,0,0.679,0.1,0.845,0.191l-0.139,0.521c-0.146-0.092-0.374-0.177-0.707-0.177
		c-0.769,0-1.185,0.628-1.185,1.402c0,0.857,0.499,1.386,1.164,1.386c0.347,0,0.575-0.1,0.749-0.184L145.596,95.569z"/>
	<path fill="#58595B" d="M146.987,90.958c0.007,0.229-0.146,0.413-0.388,0.413c-0.215,0-0.367-0.184-0.367-0.413
		c0-0.237,0.159-0.422,0.381-0.422C146.842,90.536,146.987,90.72,146.987,90.958z M146.309,95.707V92h0.609v3.707H146.309z"/>
	<path fill="#58595B" d="M150.963,93.822c0,1.371-0.859,1.969-1.669,1.969c-0.908,0-1.607-0.735-1.607-1.907
		c0-1.241,0.734-1.969,1.663-1.969C150.312,91.915,150.963,92.689,150.963,93.822z M148.303,93.861c0,0.812,0.422,1.425,1.018,1.425
		c0.582,0,1.019-0.605,1.019-1.44c0-0.628-0.284-1.425-1.004-1.425C148.615,92.42,148.303,93.156,148.303,93.861z M150.236,90.398
		l-0.845,1.096h-0.437l0.61-1.096H150.236z"/>
	<path fill="#58595B" d="M151.731,93.002c0-0.383-0.007-0.697-0.028-1.003h0.541l0.034,0.612h0.015
		c0.166-0.353,0.554-0.697,1.107-0.697c0.465,0,1.186,0.307,1.186,1.578v2.214h-0.61V93.57c0-0.598-0.2-1.096-0.776-1.096
		c-0.4,0-0.713,0.314-0.816,0.689c-0.027,0.084-0.042,0.199-0.042,0.313v2.229h-0.609V93.002z"/>
	<path fill="#58595B" d="M159.987,95.707c-0.132-0.146-0.257-0.291-0.437-0.506c-0.402,0.414-0.853,0.59-1.365,0.59
		c-0.907,0-1.434-0.674-1.434-1.447c0-0.705,0.381-1.188,0.914-1.509v-0.023c-0.242-0.337-0.388-0.712-0.388-1.08
		c0-0.628,0.409-1.271,1.185-1.271c0.582,0,1.032,0.429,1.032,1.096c0,0.544-0.284,0.973-1.025,1.379v0.022
		c0.396,0.506,0.839,1.072,1.137,1.44c0.214-0.36,0.359-0.858,0.45-1.509h0.554c-0.125,0.812-0.325,1.455-0.672,1.907
		c0.249,0.291,0.492,0.582,0.769,0.911H159.987z M159.252,94.818c-0.277-0.337-0.797-0.965-1.316-1.624
		c-0.249,0.177-0.603,0.506-0.603,1.05c0,0.59,0.395,1.042,0.956,1.042C158.691,95.286,159.031,95.086,159.252,94.818z
		 M157.833,91.669c0,0.368,0.152,0.651,0.353,0.927c0.472-0.298,0.776-0.574,0.776-1.011c0-0.314-0.159-0.666-0.54-0.666
		C158.033,90.919,157.833,91.271,157.833,91.669z"/>
	<path fill="#58595B" d="M162.638,94.895c0.271,0.184,0.665,0.337,1.081,0.337c0.616,0,0.977-0.36,0.977-0.881
		c0-0.482-0.25-0.759-0.88-1.026c-0.762-0.299-1.233-0.735-1.233-1.464c0-0.804,0.603-1.401,1.511-1.401
		c0.478,0,0.824,0.123,1.032,0.253l-0.167,0.544c-0.152-0.092-0.464-0.245-0.887-0.245c-0.637,0-0.879,0.421-0.879,0.773
		c0,0.482,0.283,0.72,0.928,0.996c0.79,0.337,1.191,0.758,1.191,1.517c0,0.796-0.533,1.485-1.635,1.485
		c-0.45,0-0.942-0.146-1.191-0.329L162.638,94.895z"/>
	<path fill="#58595B" d="M168.92,94.696c0,0.383,0.007,0.72,0.027,1.011h-0.54l-0.035-0.605h-0.014
		c-0.159,0.299-0.513,0.689-1.108,0.689c-0.526,0-1.156-0.321-1.156-1.624V92h0.609v2.053c0,0.704,0.193,1.18,0.748,1.18
		c0.408,0,0.692-0.314,0.804-0.613c0.034-0.1,0.056-0.222,0.056-0.345V92h0.609V94.696z"/>
	<path fill="#58595B" d="M169.93,93.209c0-0.475-0.014-0.858-0.028-1.21h0.548l0.027,0.636h0.014
		c0.25-0.452,0.645-0.721,1.192-0.721c0.811,0,1.42,0.759,1.42,1.885c0,1.333-0.734,1.991-1.524,1.991
		c-0.443,0-0.831-0.214-1.032-0.582h-0.014v2.015h-0.603V93.209z M170.533,94.198c0,0.1,0.014,0.191,0.027,0.275
		c0.111,0.468,0.479,0.789,0.915,0.789c0.644,0,1.019-0.582,1.019-1.433c0-0.743-0.354-1.379-0.998-1.379
		c-0.416,0-0.804,0.33-0.921,0.835c-0.021,0.085-0.042,0.185-0.042,0.276V94.198z"/>
	<path fill="#58595B" d="M174.209,93.975c0.015,0.912,0.541,1.287,1.15,1.287c0.437,0,0.699-0.084,0.929-0.191l0.104,0.482
		c-0.215,0.107-0.582,0.229-1.115,0.229c-1.032,0-1.648-0.75-1.648-1.868c0-1.119,0.596-2,1.572-2c1.095,0,1.386,1.065,1.386,1.747
		c0,0.138-0.015,0.245-0.021,0.313H174.209z M175.998,93.493c0.007-0.429-0.16-1.095-0.846-1.095c-0.616,0-0.887,0.628-0.935,1.095
		H175.998z"/>
	<path fill="#58595B" d="M177.34,93.156c0-0.437-0.007-0.812-0.028-1.156h0.534l0.021,0.728h0.027
		c0.152-0.498,0.52-0.812,0.929-0.812c0.069,0,0.118,0.008,0.173,0.023v0.636c-0.062-0.016-0.124-0.023-0.208-0.023
		c-0.429,0-0.733,0.36-0.817,0.866c-0.014,0.092-0.027,0.199-0.027,0.313v1.977h-0.603V93.156z"/>
	<path fill="#58595B" d="M180.089,92l0.658,2.083c0.11,0.337,0.201,0.644,0.271,0.95h0.021c0.076-0.307,0.173-0.613,0.284-0.95
		L181.974,92h0.637l-1.316,3.707h-0.582L179.438,92H180.089z"/>
	<path fill="#58595B" d="M183.864,90.958c0.007,0.229-0.146,0.413-0.388,0.413c-0.215,0-0.367-0.184-0.367-0.413
		c0-0.237,0.159-0.422,0.381-0.422C183.718,90.536,183.864,90.72,183.864,90.958z M183.185,95.707V92h0.609v3.707H183.185z"/>
	<path fill="#58595B" d="M184.723,95.017c0.18,0.13,0.498,0.269,0.804,0.269c0.443,0,0.65-0.245,0.65-0.552
		c0-0.322-0.173-0.498-0.623-0.682c-0.603-0.237-0.887-0.605-0.887-1.05c0-0.598,0.437-1.088,1.157-1.088
		c0.339,0,0.637,0.107,0.824,0.23l-0.152,0.49c-0.132-0.092-0.374-0.215-0.687-0.215c-0.359,0-0.561,0.229-0.561,0.506
		c0,0.306,0.201,0.444,0.637,0.628c0.582,0.245,0.88,0.566,0.88,1.118c0,0.651-0.457,1.11-1.254,1.11
		c-0.367,0-0.706-0.1-0.941-0.252L184.723,95.017z"/>
	<path fill="#58595B" d="M188.227,90.958c0.007,0.229-0.146,0.413-0.388,0.413c-0.215,0-0.367-0.184-0.367-0.413
		c0-0.237,0.159-0.422,0.381-0.422C188.082,90.536,188.227,90.72,188.227,90.958z M187.548,95.707V92h0.609v3.707H187.548z"/>
	<path fill="#58595B" d="M192.203,93.822c0,1.371-0.859,1.969-1.67,1.969c-0.907,0-1.606-0.735-1.606-1.907
		c0-1.241,0.733-1.969,1.662-1.969C191.551,91.915,192.203,92.689,192.203,93.822z M189.542,93.861c0,0.812,0.423,1.425,1.019,1.425
		c0.582,0,1.018-0.605,1.018-1.44c0-0.628-0.283-1.425-1.004-1.425S189.542,93.156,189.542,93.861z M191.475,90.398l-0.845,1.096
		h-0.437l0.609-1.096H191.475z"/>
	<path fill="#58595B" d="M192.97,93.002c0-0.383-0.007-0.697-0.028-1.003h0.541l0.034,0.612h0.014
		c0.167-0.353,0.555-0.697,1.108-0.697c0.465,0,1.185,0.307,1.185,1.578v2.214h-0.609V93.57c0-0.598-0.201-1.096-0.775-1.096
		c-0.402,0-0.714,0.314-0.817,0.689c-0.028,0.084-0.042,0.199-0.042,0.313v2.229h-0.609V93.002z"/>
</g>
</svg>
