<?xml version="1.0" encoding="utf-8"?>
<!-- Generator: Adobe Illustrator 16.0.0, SVG Export Plug-In . SVG Version: 6.00 Build 0)  -->
<!DOCTYPE svg PUBLIC "-//W3C//DTD SVG 1.1//EN" "http://www.w3.org/Graphics/SVG/1.1/DTD/svg11.dtd" [
	<!ENTITY ns_extend "http://ns.adobe.com/Extensibility/1.0/">
	<!ENTITY ns_ai "http://ns.adobe.com/AdobeIllustrator/10.0/">
	<!ENTITY ns_graphs "http://ns.adobe.com/Graphs/1.0/">
	<!ENTITY ns_vars "http://ns.adobe.com/Variables/1.0/">
	<!ENTITY ns_imrep "http://ns.adobe.com/ImageReplacement/1.0/">
	<!ENTITY ns_sfw "http://ns.adobe.com/SaveForWeb/1.0/">
	<!ENTITY ns_custom "http://ns.adobe.com/GenericCustomNamespace/1.0/">
	<!ENTITY ns_adobe_xpath "http://ns.adobe.com/XPath/1.0/">
]>
<svg version="1.1" id="Layer_1" xmlns:x="&ns_extend;" xmlns:i="&ns_ai;" xmlns:graph="&ns_graphs;"
	 xmlns="http://www.w3.org/2000/svg" xmlns:xlink="http://www.w3.org/1999/xlink" x="0px" y="0px" width="47px" height="50px"
	 viewBox="0 0 47 50" enable-background="new 0 0 47 50" xml:space="preserve">
<metadata>
	<sfw  xmlns="&ns_sfw;">
		<slices></slices>
		<sliceSourceBounds  height="46.725" width="41.897" bottomLeftOrigin="true" x="14.735" y="-59.975"></sliceSourceBounds>
	</sfw>
</metadata>
<g>
	<path fill="#FFFFFF" d="M42.536,19.871c0,10.422-8.448,18.871-18.871,18.871c-10.422,0-18.871-8.449-18.871-18.871
		S13.243,1,23.665,1C34.088,1,42.536,9.449,42.536,19.871"/>
	<circle fill="none" stroke="#6D6E71" stroke-width="0.5" stroke-miterlimit="10" cx="23.665" cy="19.871" r="18.871"/>
	<path fill="#00A19B" d="M16.551,27.087l-1.902-17.88c0,0-1.902,1.217-1.902,1.826S16.551,27.087,16.551,27.087"/>
	<path fill="#204381" d="M17.921,29.218L16.551,7.99c0,0,6.01,3.348,12.402,2.055c-3.424,7.456-4.562,23.968-3.729,23.89
		c1.753-0.161,1.979-0.533,1.979-0.533s-0.733-14.906,7.38-27.595c0,0-9.283,4.56-19.783,0L17.921,29.218z"/>
	<path fill="#00A19B" d="M32.758,11.87c0,0,1.826,1.293,1.75,2.617c-0.06,1.033-4.033,3.575-5.858,18.61l-0.837,0.153
		C28.493,20.279,32.758,11.87,32.758,11.87"/>
</g>
<g>
	<path fill="#204381" d="M2.913,46.573c0.315,0.185,0.775,0.339,1.259,0.339c0.718,0,1.138-0.362,1.138-0.887
		c0-0.485-0.291-0.763-1.025-1.032c-0.888-0.301-1.437-0.739-1.437-1.472c0-0.81,0.702-1.41,1.76-1.41
		c0.557,0,0.96,0.123,1.203,0.254l-0.194,0.548c-0.178-0.093-0.541-0.247-1.033-0.247c-0.743,0-1.025,0.424-1.025,0.778
		c0,0.485,0.331,0.725,1.082,1.002c0.92,0.339,1.388,0.763,1.388,1.525c0,0.802-0.622,1.495-1.905,1.495
		c-0.525,0-1.098-0.146-1.389-0.331L2.913,46.573z"/>
	<path fill="#204381" d="M9.511,45.756L8.946,47.39H8.219l1.849-5.193h0.848l1.856,5.193h-0.75l-0.582-1.634H9.511z M11.295,45.232
		l-0.533-1.495c-0.121-0.339-0.202-0.647-0.283-0.948h-0.016c-0.081,0.309-0.169,0.624-0.274,0.94l-0.533,1.503H11.295z"/>
	<path fill="#204381" d="M15.286,42.196h0.703v4.631h2.325v0.562h-3.027V42.196z"/>
	<path fill="#204381" d="M24.612,47.22c-0.259,0.124-0.775,0.247-1.437,0.247c-1.534,0-2.688-0.925-2.688-2.628
		c0-1.626,1.154-2.728,2.842-2.728c0.678,0,1.105,0.139,1.291,0.231l-0.17,0.547c-0.266-0.123-0.646-0.216-1.098-0.216
		c-1.275,0-2.123,0.778-2.123,2.143c0,1.271,0.767,2.088,2.09,2.088c0.428,0,0.864-0.085,1.146-0.216L24.612,47.22z"/>
	<path fill="#204381" d="M30.024,44.955h-2.115v1.872h2.357v0.562h-3.06v-5.193h2.938v0.562h-2.236v1.641h2.115V44.955z"/>
	<path fill="#204381" d="M32.893,42.266c0.428-0.062,0.937-0.108,1.493-0.108c1.01,0,1.728,0.224,2.204,0.647
		c0.484,0.424,0.767,1.025,0.767,1.865c0,0.848-0.274,1.541-0.783,2.019c-0.508,0.485-1.348,0.747-2.405,0.747
		c-0.5,0-0.92-0.022-1.275-0.062V42.266z M33.595,46.858c0.178,0.03,0.437,0.038,0.711,0.038c1.501,0,2.316-0.802,2.316-2.204
		c0.008-1.225-0.719-2.003-2.204-2.003c-0.363,0-0.638,0.03-0.823,0.069V46.858z"/>
	<path fill="#204381" d="M44.633,44.739c0,1.787-1.138,2.735-2.526,2.735c-1.437,0-2.445-1.063-2.445-2.636
		c0-1.648,1.073-2.728,2.526-2.728C43.673,42.111,44.633,43.197,44.633,44.739z M40.411,44.823c0,1.11,0.63,2.104,1.735,2.104
		c1.114,0,1.744-0.979,1.744-2.158c0-1.032-0.565-2.111-1.735-2.111C40.992,42.658,40.411,43.684,40.411,44.823z"/>
</g>
</svg>
