<svg height="512pt" viewBox="-4 0 511 512" width="512pt" xmlns="http://www.w3.org/2000/svg"><path d="m316.234375 102.398438c-.917969.003906-1.828125-.144532-2.699219-.433594l-179.199218-59.734375c-4.476563-1.488281-6.898438-6.324219-5.410157-10.800781 1.488281-4.480469 6.328125-6.902344 10.804688-5.410157l179.199219 59.730469c4.003906 1.300781 6.457031 5.328125 5.785156 9.480469-.671875 4.15625-4.273438 7.199219-8.480469 7.167969zm0 0" fill="#a5a5a4"/><path d="m469.832031 392.535156c-14.136719 0-25.597656-11.464844-25.597656-25.601562 0-4.714844 3.820313-8.535156 8.53125-8.535156 4.714844 0 8.535156 3.820312 8.535156 8.535156 0 4.710937 3.820313 8.53125 8.53125 8.53125 4.714844 0 8.535157-3.820313 8.535157-8.53125 0-4.714844-3.820313-8.535156-8.535157-8.535156-4.710937 0-8.53125-3.820313-8.53125-8.53125v-17.066407c0-4.714843 3.820313-8.535156 8.53125-8.535156 4.714844 0 8.535157 3.820313 8.535157 8.535156v9.992188c11.761718 4.152343 18.820312 16.175781 16.710937 28.46875s-12.769531 21.277343-25.246094 21.273437zm0 0" fill="#2c2f38"/><path d="m128.5 34.132812c-4.710938 0-8.535156-3.820312-8.535156-8.53125v-17.066406c0-4.714844 3.824218-8.535156 8.535156-8.535156s8.535156 3.820312 8.535156 8.535156v17.066406c0 4.710938-3.824218 8.53125-8.535156 8.53125zm0 0" fill="#d25627"/><g fill="#e57e25"><path d="m145.566406 512h-34.132812c-9.425782 0-17.066406-7.640625-17.066406-17.066406v-349.867188c0-4.710937 3.820312-8.53125 8.53125-8.53125h51.203124c4.710938 0 8.53125 3.820313 8.53125 8.53125v349.867188c0 9.425781-7.640624 17.066406-17.066406 17.066406zm-34.132812-358.398438v341.332032h34.132812v-341.332032zm0 0"/><path d="m119.964844 25.601562h17.070312c4.710938 0 8.53125 3.820313 8.53125 8.53125v51.199219c0 4.714844-3.820312 8.535157-8.53125 8.535157h-17.070312c-4.710938 0-8.53125-3.820313-8.53125-8.535157v-51.199219c0-4.710937 3.820312-8.53125 8.53125-8.53125zm0 0"/><path d="m154.101562 238.933594c-3 .003906-5.777343-1.570313-7.324218-4.140625l-51.199219-85.332031c-1.636719-2.613282-1.734375-5.910157-.253906-8.617188s4.304687-4.40625 7.390625-4.441406c3.085937-.035156 5.949218 1.597656 7.488281 4.269531l51.203125 85.332031c1.582031 2.636719 1.625 5.917969.113281 8.59375-1.511719 2.675782-4.347656 4.332032-7.417969 4.335938zm0 0"/><path d="m102.898438 332.800781c-3.007813-.003906-5.796876-1.59375-7.332032-4.183593-1.535156-2.585938-1.59375-5.796876-.148437-8.4375l51.199219-93.867188c2.257812-4.136719 7.441406-5.664062 11.578124-3.40625 4.136719 2.257812 5.664063 7.441406 3.40625 11.582031l-51.199218 93.867188c-1.5 2.742187-4.375 4.449219-7.503906 4.445312zm0 0"/><path d="m154.101562 418.132812c-3 .003907-5.777343-1.566406-7.324218-4.136718l-51.199219-85.335938c-2.324219-4.03125-.992187-9.179687 2.996094-11.574218 3.988281-2.398438 9.164062-1.15625 11.628906 2.785156l51.203125 85.335937c1.582031 2.632813 1.625 5.914063.113281 8.589844s-4.347656 4.332031-7.417969 4.335937zm0 0"/><path d="m104.683594 508.671875c-3.011719-.003906-5.796875-1.589844-7.332032-4.179687-1.535156-2.589844-1.59375-5.796876-.152343-8.441407l49.410156-90.539062c2.253906-4.136719 7.441406-5.660157 11.578125-3.402344 4.136719 2.253906 5.664062 7.441406 3.40625 11.578125l-49.410156 90.539062c-1.496094 2.742188-4.375 4.449219-7.5 4.445313zm0 0"/></g><path d="m469.832031 307.199219c-4.710937 0-8.53125-3.820313-8.53125-8.53125v-153.601563c0-4.710937 3.820313-8.53125 8.53125-8.53125 4.714844 0 8.535157 3.820313 8.535157 8.53125v153.601563c0 4.710937-3.820313 8.53125-8.535157 8.53125zm0 0" fill="#a5a5a4"/><path d="m418.632812 213.332031v281.601563c0 4.710937-3.820312 8.53125-8.53125 8.53125h-196.269531c-4.710937 0-8.53125-3.820313-8.53125-8.53125v-281.601563zm0 0" fill="#cbb292"/><path d="m68.765625 230.398438v273.066406h-68.265625v-273.066406" fill="#cb8252"/><path d="m247.964844 247.464844h34.136718c4.710938 0 8.53125 3.824218 8.53125 8.535156v34.132812c0 4.714844-3.820312 8.535157-8.53125 8.535157h-34.136718c-4.710938 0-8.53125-3.820313-8.53125-8.535157v-34.132812c0-4.710938 3.820312-8.535156 8.53125-8.535156zm0 0" fill="#f3d55b"/><path d="m341.832031 247.464844h34.132813c4.714844 0 8.535156 3.824218 8.535156 8.535156v34.132812c0 4.714844-3.820312 8.535157-8.535156 8.535157h-34.132813c-4.710937 0-8.53125-3.820313-8.53125-8.535157v-34.132812c0-4.710938 3.820313-8.535156 8.53125-8.535156zm0 0" fill="#f3d55b"/><path d="m247.964844 332.800781h34.136718c4.710938 0 8.53125 3.820313 8.53125 8.53125v34.132813c0 4.714844-3.820312 8.535156-8.53125 8.535156h-34.136718c-4.710938 0-8.53125-3.820312-8.53125-8.535156v-34.132813c0-4.710937 3.820312-8.53125 8.53125-8.53125zm0 0" fill="#f3d55b"/><path d="m341.832031 332.800781h34.132813c4.714844 0 8.535156 3.820313 8.535156 8.53125v34.132813c0 4.714844-3.820312 8.535156-8.535156 8.535156h-34.132813c-4.710937 0-8.53125-3.820312-8.53125-8.535156v-34.132813c0-4.710937 3.820313-8.53125 8.53125-8.53125zm0 0" fill="#f3d55b"/><path d="m247.964844 418.132812h34.136718c4.710938 0 8.53125 3.820313 8.53125 8.535157v34.132812c0 4.710938-3.820312 8.53125-8.53125 8.53125h-34.136718c-4.710938 0-8.53125-3.820312-8.53125-8.53125v-34.132812c0-4.714844 3.820312-8.535157 8.53125-8.535157zm0 0" fill="#f3d55b"/><path d="m341.832031 418.132812h34.132813c4.714844 0 8.535156 3.820313 8.535156 8.535157v34.132812c0 4.710938-3.820312 8.53125-8.535156 8.53125h-34.132813c-4.710937 0-8.53125-3.820312-8.53125-8.53125v-34.132812c0-4.714844 3.820313-8.535157 8.53125-8.535157zm0 0" fill="#f3d55b"/><path d="m196.765625 179.199219h230.402344c4.710937 0 8.53125 3.820312 8.53125 8.535156v17.066406c0 4.710938-3.820313 8.53125-8.53125 8.53125h-230.402344c-4.710937 0-8.53125-3.820312-8.53125-8.53125v-17.066406c0-4.714844 3.820313-8.535156 8.53125-8.535156zm0 0" fill="#7f6e5d"/><path d="m9.035156 204.800781h51.199219c4.710937 0 8.53125 3.820313 8.53125 8.53125v25.601563h-68.265625v-25.601563c0-4.710937 3.820312-8.53125 8.535156-8.53125zm0 0" fill="#804537"/><path d="m469.832031 341.332031c-14.136719 0-25.597656-11.460937-25.597656-25.597656 0-14.140625 11.460937-25.601563 25.597656-25.601563 14.140625 0 25.601563 11.460938 25.601563 25.601563 0 14.136719-11.460938 25.597656-25.601563 25.597656zm0-34.132812c-4.710937 0-8.53125 3.820312-8.53125 8.535156 0 4.710937 3.820313 8.53125 8.53125 8.53125 4.714844 0 8.535157-3.820313 8.535157-8.53125 0-4.714844-3.820313-8.535156-8.535157-8.535156zm0 0" fill="#e57e25"/><path d="m34.632812 298.667969c-4.710937 0-8.53125-3.820313-8.53125-8.535157v-17.066406c0-4.710937 3.820313-8.53125 8.53125-8.53125 4.714844 0 8.535157 3.820313 8.535157 8.53125v17.066406c0 4.714844-3.820313 8.535157-8.535157 8.535157zm0 0" fill="#f3d55b"/><path d="m34.632812 349.867188c-4.710937 0-8.53125-3.820313-8.53125-8.535157v-17.066406c0-4.710937 3.820313-8.53125 8.53125-8.53125 4.714844 0 8.535157 3.820313 8.535157 8.53125v17.066406c0 4.714844-3.820313 8.535157-8.535157 8.535157zm0 0" fill="#f3d55b"/><path d="m34.632812 401.066406c-4.710937 0-8.53125-3.820312-8.53125-8.53125v-17.070312c0-4.710938 3.820313-8.53125 8.53125-8.53125 4.714844 0 8.535157 3.820312 8.535157 8.53125v17.070312c0 4.710938-3.820313 8.53125-8.535157 8.53125zm0 0" fill="#f3d55b"/><path d="m34.632812 452.265625c-4.710937 0-8.53125-3.820313-8.53125-8.53125v-17.066406c0-4.714844 3.820313-8.535157 8.53125-8.535157 4.714844 0 8.535157 3.820313 8.535157 8.535157v17.066406c0 4.710937-3.820313 8.53125-8.535157 8.53125zm0 0" fill="#f3d55b"/><path d="m34.632812 503.464844c-4.710937 0-8.53125-3.820313-8.53125-8.53125v-17.066406c0-4.714844 3.820313-8.535157 8.53125-8.535157 4.714844 0 8.535157 3.820313 8.535157 8.535157v17.066406c0 4.710937-3.820313 8.53125-8.535157 8.53125zm0 0" fill="#f3d55b"/><path d="m495.433594 153.601562h-420.4375c-4.714844 0-8.535156-3.820312-8.535156-8.535156 0-4.710937 3.820312-8.53125 8.535156-8.53125h392.277344l-49.050782-32.703125c-1.394531-.929687-3.03125-1.429687-4.710937-1.433593h-338.515625c-4.714844 0-8.535156-3.820313-8.535156-8.53125 0-4.714844 3.820312-8.535157 8.535156-8.535157h338.515625c5.054687-.015625 10 1.46875 14.210937 4.269531l72.488282 48.332032c3.167968 2.078125 4.585937 6 3.480468 9.625-1.105468 3.625-4.46875 6.085937-8.257812 6.042968zm0 0" fill="#f29c1f"/><path d="m162.632812 153.601562c-1.546874 0-3.0625-.421874-4.386718-1.222656l-85.332032-51.199218c-3.945312-2.46875-5.183593-7.640626-2.789062-11.628907 2.398438-3.988281 7.546875-5.320312 11.578125-2.996093l85.332031 51.199218c3.289063 1.976563 4.851563 5.902344 3.824219 9.597656-1.023437 3.695313-4.390625 6.25-8.226563 6.25zm0 0" fill="#f29c1f"/><path d="m162.632812 153.601562c-3.835937 0-7.199218-2.554687-8.226562-6.25-1.027344-3.695312.539062-7.621093 3.824219-9.597656l85.332031-51.199218c2.617188-1.636719 5.910156-1.734376 8.621094-.253907 2.707031 1.476563 4.402344 4.304688 4.4375 7.386719.039062 3.085938-1.59375 5.949219-4.269532 7.492188l-85.332031 51.199218c-1.324219.800782-2.839843 1.222656-4.386719 1.222656zm0 0" fill="#f29c1f"/><path d="m333.300781 153.601562c-1.546875 0-3.0625-.421874-4.386719-1.222656l-85.332031-51.199218c-3.945312-2.46875-5.1875-7.640626-2.789062-11.628907 2.398437-3.988281 7.546875-5.320312 11.578125-2.996093l85.332031 51.199218c3.285156 1.976563 4.851563 5.902344 3.824219 9.597656-1.027344 3.695313-4.390625 6.25-8.226563 6.25zm0 0" fill="#f29c1f"/><path d="m333.300781 153.601562c-3.835937 0-7.203125-2.554687-8.226562-6.25-1.027344-3.695312.535156-7.621093 3.824219-9.597656l85.332031-51.199218c4.03125-2.324219 9.179687-.992188 11.578125 2.996093 2.394531 3.988281 1.15625 9.160157-2.789063 11.628907l-85.332031 51.199218c-1.324219.800782-2.839844 1.222656-4.386719 1.222656zm0 0" fill="#f29c1f"/><path d="m17.566406 85.332031h55.46875c9.425782 0 17.066406 7.640625 17.066406 17.066407v34.136718c0 9.425782-7.640624 17.066406-17.066406 17.066406h-55.46875c-9.425781 0-17.066406-7.640624-17.066406-17.066406v-34.136718c0-9.425782 7.640625-17.066407 17.066406-17.066407zm0 0" fill="#f29c1f"/></svg>